# xmcd
#
# Track frame offsets: 
#        150
#        24133
#        47600
#        74664
#        99284
#        122490
#        149681
#        180205
#        203869
#        223744
#        259520
#        282216
#
# Disc length: 4056 seconds
#
# Revision: 0
# Processed by: cddbd v1.5.2PL0 Copyright (c) Steve Scherf et al.
# Submitted via: ExactAudioCopyFreeDBPlugin 1.0
#
DISCID=a90fd60c
DTITLE=龚玥 - 发烧皇后 DTS
DYEAR=2008
DGENRE=
TTITLE0=真的好想你
TTITLE1=祝你平安
TTITLE2=谁的眼泪在飞
TTITLE3=迟来的爱
TTITLE4=说句心里话
TTITLE5=相逢是首歌
TTITLE6=同一首歌
TTITLE7=感恩的心
TTITLE8=爱的奉献
TTITLE9=你在他乡还好吗
TTITLE10=我的中国心
TTITLE11=漫步人生路
EXTD=
EXTT0=
EXTT1=
EXTT2=
EXTT3=
EXTT4=
EXTT5=
EXTT6=
EXTT7=
EXTT8=
EXTT9=
EXTT10=
EXTT11=
PLAYORDER=
